<svg width="32" height="20" viewBox="0 0 32 20" fill="none" xmlns="http://www.w3.org/2000/svg">
<path d="M20.0962 19.3592H14.6184V17.3356H14.5524C13.7604 18.9882 11.5825 20 9.17363 20C3.76185 20 0 15.6492 0 9.98314C0 4.45194 3.92684 0 9.17363 0C11.4175 0 13.4965 0.910622 14.5524 2.63069H14.6184V0.640809H20.0962V19.3592ZM10.0316 14.7723C12.6055 14.7723 14.6184 12.6813 14.6184 9.98314C14.6184 7.35245 12.5395 5.22765 9.9656 5.22765C7.4577 5.22765 5.47778 7.35244 5.47778 10.0506C5.47778 12.6476 7.4907 14.7723 10.0316 14.7723Z" fill="black"/>
<path d="M32 14.4328C32 17.1536 29.842 19.3592 27.18 19.3592C24.5179 19.3592 22.3599 17.1536 22.3599 14.4328C22.3599 11.712 24.5179 9.50641 27.18 9.50641C29.842 9.50641 32 11.712 32 14.4328Z" fill="black"/>
</svg>
