<svg width="144" height="141" viewBox="0 0 144 141" fill="none" xmlns="http://www.w3.org/2000/svg">
<g clip-path="url(#clip0_5_40)">
<path d="M120.21 22.7364C124.491 31.3124 128.583 40.2128 127.669 48.9309C126.846 56.7189 122.57 62.9563 116.928 67.2272C110.782 71.8747 102.657 73.8949 94.2671 74.0106C89.951 74.0707 85.5476 73.6787 81.107 72.9353C78.9029 72.5577 76.684 72.1019 74.4764 71.5804C72.2689 71.0589 70.0275 70.5322 67.9353 69.2784C66.1499 68.1989 64.609 66.4325 64.0885 64.4713C63.5334 62.395 64.4733 60.7122 65.832 59.6512C68.9032 57.2555 73.9136 57.1015 78.192 57.7016C86.4688 58.8496 96.6755 64.3624 100.134 73.3916C103.592 82.4208 98.9582 90.314 92.9361 94.7362C86.914 99.1585 78.4611 102.072 70.4273 103.676C55.1823 106.727 38.1874 105.467 21.5932 99.6232C19.5367 98.9061 17.4979 98.0991 15.4704 97.2263C13.1403 96.2304 16.7986 93.6566 18.4162 94.3221C32.7871 100.265 47.5446 102.981 61.4819 101.918C68.3588 101.389 74.9976 99.9971 81.088 97.6257C87.6652 95.0773 94.6218 91.5511 96.404 84.0477C97.205 80.674 96.8236 76.7448 94.8553 73.1329C92.8869 69.5209 89.4557 66.3131 85.8109 64.1679C82.1661 62.0227 78.3359 60.8771 74.6268 60.5934C73.0372 60.4719 71.4355 60.5086 69.955 60.8003C69.2726 60.9383 68.6291 61.0403 68.446 61.762C68.2234 62.6125 68.6512 63.6488 69.1885 64.4914C71.4215 67.9675 76.3695 68.4782 79.6439 69.1661C83.5814 69.9912 87.5148 70.5628 91.3954 70.7973C98.5097 71.2244 105.649 70.4331 111.377 67.3138C117.385 64.0443 121.796 58.2156 123.025 51.0053C124.507 42.3843 120.296 33.246 116.036 24.6313C115.153 22.8412 119.381 21.0981 120.22 22.7634L120.228 22.7561L120.21 22.7364Z" fill="#1E2DB6" fill-opacity="0.53"/>
<path d="M31.4611 92.8755L17.2286 92.889L10.376 92.899C8.47086 92.9052 6.13692 92.5748 4.55178 93.4235L6.08023 91.5796C6.67617 93.7465 8.79139 95.5856 10.4079 97.153C12.2416 98.9229 14.1375 100.635 16.0255 102.354C19.8109 105.803 23.8664 109.386 26.8131 113.615C27.9223 115.213 23.9236 117 22.6288 115.483C18.9935 111.214 15.0735 107.45 10.9454 103.695C8.9212 101.845 6.88923 100.002 4.96317 98.0233C3.39326 96.4126 2.08792 94.8685 1.50676 92.7798C1.26726 91.8993 2.51505 91.2172 3.03519 90.9359C4.99651 89.8845 7.32782 89.7762 9.71836 89.7782C12.3509 89.7758 14.9835 89.7735 17.6238 89.7639L33.436 89.7524C34.5227 89.7533 34.9152 90.7672 34.4915 91.5105C33.921 92.5006 32.631 92.8726 31.4442 92.8729L31.4611 92.8755Z" fill="#1E2DB6" fill-opacity="0.53"/>
</g>
<defs>
<clipPath id="clip0_5_40">
<rect width="135.719" height="64.3341" fill="white" transform="matrix(-0.73237 0.680907 0.680907 0.73237 99.7956 0.717285)"/>
</clipPath>
</defs>
</svg>
